<svg width="208" height="19" viewBox="0 0 208 19" fill="none" xmlns="http://www.w3.org/2000/svg">
<path d="M7.704 17.952C7.032 17.952 6.488 17.76 6.072 17.376C5.672 16.976 5.472 16.448 5.472 15.792V4.488H2.088C1.384 4.488 0.856 4.344 0.504 4.056C0.168 3.752 0 3.296 0 2.688C0 2.08 0.168 1.632 0.504 1.344C0.856 1.056 1.384 0.912 2.088 0.912H13.32C14.024 0.912 14.544 1.056 14.88 1.344C15.232 1.632 15.408 2.08 15.408 2.688C15.408 3.296 15.232 3.752 14.88 4.056C14.544 4.344 14.024 4.488 13.32 4.488H9.936V15.792C9.936 16.448 9.728 16.976 9.312 17.376C8.912 17.76 8.376 17.952 7.704 17.952Z" fill="#FF5678"/>
<path d="M24.5721 5.736C25.9481 5.736 26.9721 6.16 27.6441 7.008C28.3161 7.84 28.6521 9.112 28.6521 10.824V16.008C28.6521 16.616 28.4601 17.096 28.0761 17.448C27.6921 17.8 27.1721 17.976 26.5161 17.976C25.8601 17.976 25.3401 17.8 24.9561 17.448C24.5721 17.096 24.3801 16.616 24.3801 16.008V10.728C24.3801 9.576 23.8841 9 22.8921 9C22.2521 9 21.7401 9.208 21.3561 9.624C20.9881 10.024 20.8041 10.568 20.8041 11.256V16.008C20.8041 16.616 20.6121 17.096 20.2281 17.448C19.8441 17.8 19.3241 17.976 18.6681 17.976C18.0121 17.976 17.4921 17.8 17.1081 17.448C16.7241 17.096 16.5321 16.616 16.5321 16.008V2.712C16.5321 2.152 16.7321 1.696 17.1321 1.344C17.5321 0.976 18.0601 0.792 18.7161 0.792C19.3401 0.792 19.8441 0.96 20.2281 1.296C20.6121 1.632 20.8041 2.08 20.8041 2.64V7.44C21.2361 6.88 21.7721 6.456 22.4121 6.168C23.0521 5.88 23.7721 5.736 24.5721 5.736Z" fill="#FF5678"/>
<path d="M40.6633 14.04C41.0313 14.04 41.3273 14.184 41.5513 14.472C41.7913 14.76 41.9113 15.136 41.9113 15.6C41.9113 16.24 41.5993 16.728 40.9753 17.064C40.4313 17.336 39.7833 17.568 39.0313 17.76C38.2953 17.936 37.6153 18.024 36.9913 18.024C35.6793 18.024 34.5353 17.776 33.5593 17.28C32.5833 16.784 31.8313 16.072 31.3033 15.144C30.7753 14.216 30.5113 13.128 30.5113 11.88C30.5113 10.696 30.7593 9.64 31.2553 8.712C31.7673 7.768 32.4713 7.04 33.3673 6.528C34.2793 6 35.3033 5.736 36.4393 5.736C37.5433 5.736 38.5113 5.976 39.3433 6.456C40.1753 6.936 40.8153 7.616 41.2633 8.496C41.7273 9.376 41.9593 10.408 41.9593 11.592C41.9593 11.96 41.8713 12.248 41.6953 12.456C41.5353 12.648 41.2953 12.744 40.9753 12.744H34.6393C34.7513 13.512 34.9993 14.064 35.3833 14.4C35.7673 14.736 36.3353 14.904 37.0873 14.904C37.4873 14.904 37.8553 14.864 38.1913 14.784C38.5273 14.688 38.9033 14.56 39.3193 14.4C39.5593 14.304 39.7913 14.224 40.0153 14.16C40.2553 14.08 40.4713 14.04 40.6633 14.04ZM36.5593 8.616C35.9993 8.616 35.5513 8.8 35.2153 9.168C34.8793 9.52 34.6793 10.04 34.6153 10.728H38.3833C38.2873 9.32 37.6793 8.616 36.5593 8.616Z" fill="#FF5678"/>
<path d="M62.4142 9.048C63.4062 9.352 64.1663 9.864 64.6943 10.584C65.2223 11.288 65.4863 12.16 65.4863 13.2C65.4863 14.128 65.2383 14.944 64.7423 15.648C64.2623 16.336 63.5662 16.872 62.6543 17.256C61.7583 17.64 60.7022 17.832 59.4862 17.832H53.1022C52.4463 17.832 51.9422 17.656 51.5902 17.304C51.2382 16.952 51.0622 16.448 51.0622 15.792V2.952C51.0622 2.296 51.2382 1.792 51.5902 1.44C51.9422 1.088 52.4463 0.912 53.1022 0.912H59.2463C61.0223 0.912 62.4302 1.312 63.4702 2.112C64.5262 2.896 65.0543 3.96 65.0543 5.304C65.0543 6.168 64.8223 6.936 64.3583 7.608C63.8943 8.264 63.2463 8.744 62.4142 9.048ZM55.3582 7.56H58.5023C59.3343 7.56 59.9422 7.432 60.3262 7.176C60.7102 6.92 60.9022 6.512 60.9022 5.952C60.9022 5.36 60.7102 4.928 60.3262 4.656C59.9422 4.384 59.3343 4.248 58.5023 4.248H55.3582V7.56ZM58.9342 14.496C59.8143 14.496 60.4382 14.36 60.8062 14.088C61.1902 13.8 61.3822 13.336 61.3822 12.696C61.3822 12.056 61.1902 11.6 60.8062 11.328C60.4382 11.04 59.8143 10.896 58.9342 10.896H55.3582V14.496H58.9342Z" fill="#FF5678"/>
<path d="M77.0618 14.04C77.4297 14.04 77.7258 14.184 77.9498 14.472C78.1898 14.76 78.3098 15.136 78.3098 15.6C78.3098 16.24 77.9978 16.728 77.3738 17.064C76.8298 17.336 76.1818 17.568 75.4298 17.76C74.6938 17.936 74.0138 18.024 73.3898 18.024C72.0778 18.024 70.9338 17.776 69.9578 17.28C68.9818 16.784 68.2298 16.072 67.7018 15.144C67.1738 14.216 66.9098 13.128 66.9098 11.88C66.9098 10.696 67.1578 9.64 67.6538 8.712C68.1658 7.768 68.8698 7.04 69.7658 6.528C70.6778 6 71.7018 5.736 72.8378 5.736C73.9418 5.736 74.9098 5.976 75.7418 6.456C76.5738 6.936 77.2138 7.616 77.6618 8.496C78.1257 9.376 78.3577 10.408 78.3577 11.592C78.3577 11.96 78.2698 12.248 78.0938 12.456C77.9337 12.648 77.6938 12.744 77.3738 12.744H71.0378C71.1497 13.512 71.3978 14.064 71.7818 14.4C72.1658 14.736 72.7338 14.904 73.4858 14.904C73.8858 14.904 74.2538 14.864 74.5898 14.784C74.9258 14.688 75.3018 14.56 75.7178 14.4C75.9577 14.304 76.1898 14.224 76.4137 14.16C76.6537 14.08 76.8698 14.04 77.0618 14.04ZM72.9578 8.616C72.3978 8.616 71.9498 8.8 71.6138 9.168C71.2778 9.52 71.0778 10.04 71.0138 10.728H74.7818C74.6858 9.32 74.0778 8.616 72.9578 8.616Z" fill="#FF5678"/>
<path d="M85.8015 5.736C87.6255 5.736 88.9695 6.176 89.8335 7.056C90.7135 7.92 91.1535 9.24 91.1535 11.016V16.032C91.1535 16.64 90.9695 17.12 90.6015 17.472C90.2495 17.808 89.7535 17.976 89.1135 17.976C88.5535 17.976 88.0895 17.816 87.7215 17.496C87.3695 17.176 87.1775 16.744 87.1455 16.2C86.9215 16.776 86.5455 17.224 86.0175 17.544C85.4895 17.864 84.8575 18.024 84.1215 18.024C83.3055 18.024 82.5695 17.864 81.9135 17.544C81.2575 17.208 80.7375 16.752 80.3535 16.176C79.9855 15.584 79.8015 14.92 79.8015 14.184C79.8015 13.336 80.0175 12.664 80.4495 12.168C80.8975 11.656 81.6015 11.288 82.5615 11.064C83.5215 10.84 84.8175 10.728 86.4495 10.728H87.0975V10.44C87.0975 9.88 86.9695 9.48 86.7135 9.24C86.4575 8.984 86.0255 8.856 85.4175 8.856C84.7615 8.856 83.8015 9.08 82.5375 9.528C82.1695 9.656 81.8575 9.72 81.6015 9.72C81.2015 9.72 80.8815 9.576 80.6415 9.288C80.4015 9 80.2815 8.624 80.2815 8.16C80.2815 7.808 80.3535 7.52 80.4975 7.296C80.6415 7.072 80.8735 6.872 81.1935 6.696C81.7535 6.408 82.4575 6.176 83.3055 6C84.1535 5.824 84.9855 5.736 85.8015 5.736ZM85.1295 15.168C85.7055 15.168 86.1775 14.968 86.5455 14.568C86.9135 14.152 87.0975 13.624 87.0975 12.984V12.696H86.7135C85.6895 12.696 84.9615 12.792 84.5295 12.984C84.0975 13.16 83.8815 13.464 83.8815 13.896C83.8815 14.264 83.9935 14.568 84.2175 14.808C84.4575 15.048 84.7615 15.168 85.1295 15.168Z" fill="#FF5678"/>
<path d="M101.492 5.736C102.9 5.736 103.948 6.16 104.636 7.008C105.324 7.84 105.668 9.112 105.668 10.824V16.008C105.668 16.616 105.476 17.096 105.092 17.448C104.708 17.8 104.188 17.976 103.532 17.976C102.876 17.976 102.356 17.8 101.972 17.448C101.588 17.096 101.396 16.616 101.396 16.008V11.016C101.396 10.312 101.268 9.8 101.012 9.48C100.772 9.16 100.404 9 99.9077 9C99.2677 9 98.7557 9.208 98.3717 9.624C98.0037 10.024 97.8197 10.568 97.8197 11.256V16.008C97.8197 16.616 97.6277 17.096 97.2437 17.448C96.8597 17.8 96.3397 17.976 95.6837 17.976C95.0277 17.976 94.5077 17.8 94.1237 17.448C93.7397 17.096 93.5477 16.616 93.5477 16.008V7.704C93.5477 7.144 93.7477 6.688 94.1477 6.336C94.5477 5.968 95.0677 5.784 95.7077 5.784C96.3157 5.784 96.7957 5.952 97.1477 6.288C97.5157 6.624 97.6997 7.064 97.6997 7.608C98.1157 7 98.6517 6.536 99.3077 6.216C99.9637 5.896 100.692 5.736 101.492 5.736Z" fill="#FF5678"/>
<path d="M130.258 0.792C130.866 0.792 131.362 0.992 131.746 1.392C132.13 1.792 132.322 2.312 132.322 2.952V16.008C132.322 16.616 132.146 17.096 131.794 17.448C131.442 17.8 130.978 17.976 130.402 17.976C129.842 17.976 129.378 17.8 129.01 17.448C128.658 17.096 128.482 16.616 128.482 16.008V8.952L125.746 13.992C125.474 14.504 125.186 14.872 124.882 15.096C124.578 15.304 124.218 15.408 123.802 15.408C123.386 15.408 123.026 15.304 122.722 15.096C122.418 14.872 122.13 14.504 121.858 13.992L119.146 9.096V16.008C119.146 16.6 118.962 17.08 118.594 17.448C118.242 17.8 117.778 17.976 117.202 17.976C116.642 17.976 116.178 17.8 115.81 17.448C115.458 17.096 115.282 16.616 115.282 16.008V2.952C115.282 2.312 115.474 1.792 115.858 1.392C116.258 0.992 116.762 0.792 117.37 0.792C117.802 0.792 118.194 0.92 118.546 1.176C118.898 1.416 119.194 1.768 119.434 2.232L123.85 10.536L128.242 2.232C128.738 1.272 129.41 0.792 130.258 0.792Z" fill="#FF5678"/>
<path d="M140.645 5.736C142.469 5.736 143.813 6.176 144.677 7.056C145.557 7.92 145.997 9.24 145.997 11.016V16.032C145.997 16.64 145.813 17.12 145.445 17.472C145.093 17.808 144.597 17.976 143.957 17.976C143.397 17.976 142.933 17.816 142.565 17.496C142.213 17.176 142.021 16.744 141.989 16.2C141.765 16.776 141.389 17.224 140.861 17.544C140.333 17.864 139.701 18.024 138.965 18.024C138.149 18.024 137.413 17.864 136.757 17.544C136.101 17.208 135.581 16.752 135.197 16.176C134.829 15.584 134.645 14.92 134.645 14.184C134.645 13.336 134.861 12.664 135.293 12.168C135.741 11.656 136.445 11.288 137.405 11.064C138.365 10.84 139.661 10.728 141.293 10.728H141.941V10.44C141.941 9.88 141.813 9.48 141.557 9.24C141.301 8.984 140.869 8.856 140.261 8.856C139.605 8.856 138.645 9.08 137.381 9.528C137.013 9.656 136.701 9.72 136.445 9.72C136.045 9.72 135.725 9.576 135.485 9.288C135.245 9 135.125 8.624 135.125 8.16C135.125 7.808 135.197 7.52 135.341 7.296C135.485 7.072 135.717 6.872 136.037 6.696C136.597 6.408 137.301 6.176 138.149 6C138.997 5.824 139.829 5.736 140.645 5.736ZM139.973 15.168C140.549 15.168 141.021 14.968 141.389 14.568C141.757 14.152 141.941 13.624 141.941 12.984V12.696H141.557C140.533 12.696 139.805 12.792 139.373 12.984C138.941 13.16 138.725 13.464 138.725 13.896C138.725 14.264 138.837 14.568 139.061 14.808C139.301 15.048 139.605 15.168 139.973 15.168Z" fill="#FF5678"/>
<path d="M154.079 18.024C152.159 18.024 150.639 17.48 149.519 16.392C148.399 15.304 147.839 13.824 147.839 11.952C147.839 10.72 148.111 9.632 148.655 8.688C149.199 7.744 149.959 7.016 150.935 6.504C151.927 5.992 153.055 5.736 154.319 5.736C154.991 5.736 155.663 5.824 156.335 6C157.007 6.176 157.599 6.424 158.111 6.744C158.607 7.048 158.855 7.512 158.855 8.136C158.855 8.632 158.735 9.04 158.495 9.36C158.271 9.664 157.975 9.816 157.607 9.816C157.367 9.816 157.135 9.784 156.911 9.72C156.687 9.64 156.439 9.528 156.167 9.384C155.847 9.24 155.575 9.136 155.351 9.072C155.127 8.992 154.879 8.952 154.607 8.952C153.023 8.952 152.231 9.92 152.231 11.856C152.231 12.816 152.431 13.552 152.831 14.064C153.247 14.56 153.839 14.808 154.607 14.808C154.879 14.808 155.127 14.776 155.351 14.712C155.591 14.632 155.855 14.52 156.143 14.376C156.463 14.232 156.719 14.128 156.911 14.064C157.119 13.984 157.343 13.944 157.583 13.944C157.951 13.944 158.247 14.104 158.471 14.424C158.711 14.728 158.831 15.128 158.831 15.624C158.831 15.928 158.767 16.208 158.639 16.464C158.511 16.704 158.335 16.888 158.111 17.016C157.007 17.688 155.663 18.024 154.079 18.024Z" fill="#FF5678"/>
<path d="M168.431 5.736C169.807 5.736 170.831 6.16 171.503 7.008C172.175 7.84 172.511 9.112 172.511 10.824V16.008C172.511 16.616 172.319 17.096 171.935 17.448C171.551 17.8 171.031 17.976 170.375 17.976C169.719 17.976 169.199 17.8 168.815 17.448C168.431 17.096 168.239 16.616 168.239 16.008V10.728C168.239 9.576 167.743 9 166.751 9C166.111 9 165.599 9.208 165.215 9.624C164.847 10.024 164.663 10.568 164.663 11.256V16.008C164.663 16.616 164.471 17.096 164.087 17.448C163.703 17.8 163.183 17.976 162.527 17.976C161.871 17.976 161.351 17.8 160.967 17.448C160.583 17.096 160.391 16.616 160.391 16.008V2.712C160.391 2.152 160.591 1.696 160.991 1.344C161.391 0.976 161.919 0.792 162.575 0.792C163.199 0.792 163.703 0.96 164.087 1.296C164.471 1.632 164.663 2.08 164.663 2.64V7.44C165.095 6.88 165.631 6.456 166.271 6.168C166.911 5.88 167.631 5.736 168.431 5.736Z" fill="#FF5678"/>
<path d="M177.059 17.976C176.451 17.976 175.939 17.816 175.523 17.496C175.123 17.16 174.923 16.664 174.923 16.008V7.752C174.923 7.096 175.123 6.608 175.523 6.288C175.939 5.952 176.451 5.784 177.059 5.784C177.667 5.784 178.171 5.952 178.571 6.288C178.987 6.608 179.195 7.096 179.195 7.752V16.008C179.195 16.664 178.987 17.16 178.571 17.496C178.171 17.816 177.667 17.976 177.059 17.976ZM177.059 4.104C176.339 4.104 175.763 3.92 175.331 3.552C174.915 3.168 174.707 2.664 174.707 2.04C174.707 1.416 174.915 0.92 175.331 0.552C175.763 0.184 176.339 0 177.059 0C177.763 0 178.331 0.184 178.763 0.552C179.195 0.92 179.411 1.416 179.411 2.04C179.411 2.664 179.195 3.168 178.763 3.552C178.347 3.92 177.779 4.104 177.059 4.104Z" fill="#FF5678"/>
<path d="M189.617 5.736C191.025 5.736 192.073 6.16 192.761 7.008C193.449 7.84 193.793 9.112 193.793 10.824V16.008C193.793 16.616 193.601 17.096 193.217 17.448C192.833 17.8 192.313 17.976 191.657 17.976C191.001 17.976 190.481 17.8 190.097 17.448C189.713 17.096 189.521 16.616 189.521 16.008V11.016C189.521 10.312 189.393 9.8 189.137 9.48C188.897 9.16 188.529 9 188.033 9C187.393 9 186.881 9.208 186.497 9.624C186.129 10.024 185.945 10.568 185.945 11.256V16.008C185.945 16.616 185.753 17.096 185.369 17.448C184.985 17.8 184.465 17.976 183.809 17.976C183.153 17.976 182.633 17.8 182.249 17.448C181.865 17.096 181.673 16.616 181.673 16.008V7.704C181.673 7.144 181.873 6.688 182.273 6.336C182.673 5.968 183.193 5.784 183.833 5.784C184.441 5.784 184.921 5.952 185.273 6.288C185.641 6.624 185.825 7.064 185.825 7.608C186.241 7 186.777 6.536 187.433 6.216C188.089 5.896 188.817 5.736 189.617 5.736Z" fill="#FF5678"/>
<path d="M205.804 14.04C206.172 14.04 206.468 14.184 206.692 14.472C206.932 14.76 207.052 15.136 207.052 15.6C207.052 16.24 206.74 16.728 206.116 17.064C205.572 17.336 204.924 17.568 204.172 17.76C203.436 17.936 202.756 18.024 202.132 18.024C200.82 18.024 199.676 17.776 198.7 17.28C197.724 16.784 196.972 16.072 196.444 15.144C195.916 14.216 195.652 13.128 195.652 11.88C195.652 10.696 195.9 9.64 196.396 8.712C196.908 7.768 197.612 7.04 198.508 6.528C199.42 6 200.444 5.736 201.58 5.736C202.684 5.736 203.652 5.976 204.484 6.456C205.316 6.936 205.956 7.616 206.404 8.496C206.868 9.376 207.1 10.408 207.1 11.592C207.1 11.96 207.012 12.248 206.836 12.456C206.676 12.648 206.436 12.744 206.116 12.744H199.78C199.892 13.512 200.14 14.064 200.524 14.4C200.908 14.736 201.476 14.904 202.228 14.904C202.628 14.904 202.996 14.864 203.332 14.784C203.668 14.688 204.044 14.56 204.46 14.4C204.7 14.304 204.932 14.224 205.156 14.16C205.396 14.08 205.612 14.04 205.804 14.04ZM201.7 8.616C201.14 8.616 200.692 8.8 200.356 9.168C200.02 9.52 199.82 10.04 199.756 10.728H203.524C203.428 9.32 202.82 8.616 201.7 8.616Z" fill="#FF5678"/>
</svg>
